<?xml version="1.0" encoding="UTF-8" standalone="no"?>
<svg
   xmlns:dc="http://purl.org/dc/elements/1.1/"
   xmlns:cc="http://creativecommons.org/ns#"
   xmlns:rdf="http://www.w3.org/1999/02/22-rdf-syntax-ns#"
   xmlns:svg="http://www.w3.org/2000/svg"
   xmlns="http://www.w3.org/2000/svg"
   xmlns:xlink="http://www.w3.org/1999/xlink"
   xmlns:sodipodi="http://sodipodi.sourceforge.net/DTD/sodipodi-0.dtd"
   xmlns:inkscape="http://www.inkscape.org/namespaces/inkscape"
   width="500mm"
   height="500mm"
   viewBox="0 0 500 500"
   version="1.1"
   id="svg8"
   inkscape:version="1.0.1 (3bc2e813f5, 2020-09-07)"
   sodipodi:docname="icon.svg"
   inkscape:export-filename="C:\Users\Lightling\Projects\Development\Unity\gw-std-unity\Assets\Goldenwere\gwsu\Controllers\CharacterController\icon.png"
   inkscape:export-xdpi="26.0096"
   inkscape:export-ydpi="26.0096">
  <defs
     id="defs2">
    <linearGradient
       inkscape:collect="always"
       id="linearGradient876">
      <stop
         style="stop-color:#fecf59;stop-opacity:1"
         offset="0"
         id="stop872" />
      <stop
         style="stop-color:#0c84ab;stop-opacity:1"
         offset="1"
         id="stop874" />
    </linearGradient>
    <linearGradient
       inkscape:collect="always"
       xlink:href="#linearGradient876"
       id="linearGradient886"
       x1="150.93982"
       y1="415.13287"
       x2="150.93982"
       y2="84.867264"
       gradientUnits="userSpaceOnUse" />
  </defs>
  <sodipodi:namedview
     id="base"
     pagecolor="#000000"
     bordercolor="#666666"
     borderopacity="1.0"
     inkscape:pageopacity="0"
     inkscape:pageshadow="2"
     inkscape:zoom="0.43762083"
     inkscape:cx="944.88189"
     inkscape:cy="944.88189"
     inkscape:document-units="mm"
     inkscape:current-layer="layer1"
     inkscape:document-rotation="0"
     showgrid="true"
     inkscape:pagecheckerboard="true"
     inkscape:window-width="1920"
     inkscape:window-height="1017"
     inkscape:window-x="-8"
     inkscape:window-y="32"
     inkscape:window-maximized="1">
    <inkscape:grid
       type="xygrid"
       id="grid10"
       units="mm"
       spacingx="1"
       spacingy="1"
       dotted="false"
       snapvisiblegridlinesonly="true" />
  </sodipodi:namedview>
  <metadata
     id="metadata5">
    <rdf:RDF>
      <cc:Work
         rdf:about="">
        <dc:format>image/svg+xml</dc:format>
        <dc:type
           rdf:resource="http://purl.org/dc/dcmitype/StillImage" />
        <dc:title></dc:title>
      </cc:Work>
    </rdf:RDF>
  </metadata>
  <g
     inkscape:label="Layer 1"
     inkscape:groupmode="layer"
     id="layer1">
    <g
       aria-label="GW
CC"
       id="text833"
       style="font-style:normal;font-variant:normal;font-weight:normal;font-stretch:normal;font-size:167.536px;line-height:1.25;font-family:Abel;-inkscape-font-specification:Abel;text-align:center;text-anchor:middle;fill:url(#linearGradient886);fill-opacity:1;stroke:#fefefe;stroke-width:3.30265621;stroke-linecap:round;stroke-linejoin:round;stroke-miterlimit:4;stroke-dasharray:none;stroke-opacity:1"
       transform="matrix(0.90835976,0,0,0.90835976,22.892342,22.909993)">
      <g
         id="g848"
         style="opacity:1;fill:url(#linearGradient886);fill-opacity:1;stroke:#fefefe;stroke-width:3.30265621;stroke-linecap:round;stroke-linejoin:round;stroke-miterlimit:4;stroke-dasharray:none;stroke-opacity:1">
        <path
           style="color:#000000;font-style:normal;font-variant:normal;font-weight:normal;font-stretch:normal;font-size:medium;line-height:1.25;font-family:Abel;-inkscape-font-specification:Abel;font-variant-ligatures:normal;font-variant-position:normal;font-variant-caps:normal;font-variant-numeric:normal;font-variant-alternates:normal;font-variant-east-asian:normal;font-feature-settings:normal;font-variation-settings:normal;text-indent:0;text-align:center;text-decoration:none;text-decoration-line:none;text-decoration-style:solid;text-decoration-color:#000000;letter-spacing:normal;word-spacing:normal;text-transform:none;writing-mode:lr-tb;direction:ltr;text-orientation:mixed;dominant-baseline:auto;baseline-shift:baseline;text-anchor:middle;white-space:normal;shape-padding:0;shape-margin:0;inline-size:0;clip-rule:nonzero;display:inline;overflow:visible;visibility:visible;isolation:auto;mix-blend-mode:normal;color-interpolation:sRGB;color-interpolation-filters:linearRGB;solid-color:#000000;solid-opacity:1;vector-effect:none;fill:url(#linearGradient886);fill-opacity:1;fill-rule:nonzero;stroke:#fefefe;stroke-width:3.30265621;stroke-linecap:round;stroke-linejoin:round;stroke-miterlimit:4;stroke-dasharray:none;stroke-dashoffset:0;stroke-opacity:1;color-rendering:auto;image-rendering:auto;shape-rendering:auto;text-rendering:auto;enable-background:accumulate;stop-color:#000000;stop-opacity:1"
           d="m 215.72383,203.94397 h -3.35399 l -6.13535,-9.40754 c -2.56321,3.38126 -5.67179,6.08081 -9.32573,8.09866 -3.65395,1.96331 -7.71691,2.94497 -12.1889,2.94497 h -6.13535 c -3.98117,0 -7.74418,-0.73624 -11.28905,-2.20872 -3.49033,-1.52702 -6.54438,-3.59941 -9.16213,-6.21716 -2.61775,-2.61775 -4.69013,-5.67179 -6.21715,-9.16212 -1.47249,-3.49033 -2.20873,-7.22608 -2.20873,-11.20725 v -62.9896 c 0,-3.98117 0.73624,-7.71692 2.20873,-11.20725 1.52702,-3.49033 3.5994,-6.54437 6.21715,-9.16212 2.61775,-2.61775 5.6718,-4.662867 9.16213,-6.135352 3.54487,-1.527021 7.30788,-2.290531 11.28905,-2.290531 h 8.34407 c 3.98117,0 7.71692,0.76351 11.20725,2.290531 3.49033,1.472485 6.54437,3.517602 9.16212,6.135352 2.61775,2.61775 4.66287,5.67179 6.13535,9.16212 1.52702,3.49033 2.29053,7.22608 2.29053,11.20725 v 4.74467 l -10.5528,1.63609 v -6.38076 c 0,-2.61775 -0.49083,-5.04463 -1.47249,-7.28062 -0.98165,-2.29053 -2.3178,-4.28111 -4.00843,-5.97174 -1.69063,-1.690632 -3.68121,-3.026776 -5.97174,-4.008432 -2.23599,-0.981656 -4.66286,-1.472484 -7.28061,-1.472484 h -7.36243 c -2.61775,0 -5.07189,0.490828 -7.36242,1.472484 -2.23599,0.981656 -4.22657,2.3178 -5.97174,4.008432 -1.69063,1.69063 -3.02677,3.68121 -4.00843,5.97174 -0.98165,2.23599 -1.47248,4.66287 -1.47248,7.28062 v 62.9896 c 0,2.61775 0.49083,5.0719 1.47248,7.36243 0.98166,2.23599 2.3178,4.22657 4.00843,5.97174 1.74517,1.69063 3.73575,3.02677 5.97174,4.00843 2.29053,0.98165 4.74467,1.47248 7.36242,1.47248 h 7.36243 c 2.61775,0 5.04462,-0.49083 7.28061,-1.47248 2.29053,-0.98166 4.28111,-2.3178 5.97174,-4.00843 1.69063,-1.74517 3.02678,-3.73575 4.00843,-5.97174 0.98166,-2.29053 1.47249,-4.74468 1.47249,-7.36243 v -24.4596 h -18.73327 v -10.06197 h 29.28607 z"
           id="path850" />
        <path
           style="color:#000000;font-style:normal;font-variant:normal;font-weight:normal;font-stretch:normal;font-size:medium;line-height:1.25;font-family:Abel;-inkscape-font-specification:Abel;font-variant-ligatures:normal;font-variant-position:normal;font-variant-caps:normal;font-variant-numeric:normal;font-variant-alternates:normal;font-variant-east-asian:normal;font-feature-settings:normal;font-variation-settings:normal;text-indent:0;text-align:center;text-decoration:none;text-decoration-line:none;text-decoration-style:solid;text-decoration-color:#000000;letter-spacing:normal;word-spacing:normal;text-transform:none;writing-mode:lr-tb;direction:ltr;text-orientation:mixed;dominant-baseline:auto;baseline-shift:baseline;text-anchor:middle;white-space:normal;shape-padding:0;shape-margin:0;inline-size:0;clip-rule:nonzero;display:inline;overflow:visible;visibility:visible;isolation:auto;mix-blend-mode:normal;color-interpolation:sRGB;color-interpolation-filters:linearRGB;solid-color:#000000;solid-opacity:1;vector-effect:none;fill:url(#linearGradient886);fill-opacity:1;fill-rule:nonzero;stroke:#fefefe;stroke-width:3.30265621;stroke-linecap:round;stroke-linejoin:round;stroke-miterlimit:4;stroke-dasharray:none;stroke-dashoffset:0;stroke-opacity:1;color-rendering:auto;image-rendering:auto;shape-rendering:auto;text-rendering:auto;enable-background:accumulate;stop-color:#000000;stop-opacity:1"
           d="m 178.58398,84.867188 c -3.99808,0 -7.7804,0.768594 -11.34179,2.302734 -3.50426,1.478717 -6.57398,3.532963 -9.20313,6.162109 -2.62944,2.629443 -4.71086,5.69849 -6.24414,9.203129 v 0.002 c -1.47949,3.50693 -2.2207,7.26034 -2.2207,11.25781 v 62.99024 c 0,3.99747 0.74121,7.75088 2.2207,11.25781 v 0.002 c 1.53328,3.50464 3.6147,6.57369 6.24414,9.20313 2.62945,2.62944 5.69849,4.71086 9.20313,6.24414 h 0.002 v 0.002 c 3.56107,1.47921 7.34237,2.21875 11.33984,2.21875 h 6.13672 c 4.49135,0 8.57623,-0.98697 12.25,-2.96094 h 0.002 v -0.002 c 3.61643,-1.99713 6.69004,-4.67373 9.24218,-8 l 6.08399,9.32617 h 3.55664 v -0.13281 -61.8125 h -29.55078 v 10.32617 h 18.73437 v 24.32813 c 0,2.60121 -0.48842,5.03678 -1.46289,7.31054 -0.9752,2.22053 -2.3017,4.19652 -3.98047,5.92969 -1.67855,1.67856 -3.65359,3.005 -5.92968,3.98047 -2.2186,0.97401 -4.62731,1.46094 -7.22852,1.46094 h -7.36133 c -2.60121,0 -5.03678,-0.48648 -7.31055,-1.46094 -2.22199,-0.97552 -4.19756,-2.30254 -5.93164,-3.98242 -1.67806,-1.73292 -3.00559,-3.70771 -3.98046,-5.92774 v -0.002 c -0.97398,-2.27327 -1.46094,-4.70803 -1.46094,-7.30859 v -62.99024 c 0,-2.60122 0.48692,-5.00797 1.46094,-7.22656 v -0.002 c 0.97526,-2.27561 2.30241,-4.24941 3.98046,-5.92774 1.73408,-1.679887 3.70965,-3.006909 5.93164,-3.98242 2.27377,-0.974468 4.70934,-1.462891 7.31055,-1.462891 h 7.36133 c 2.60121,0 5.00992,0.488874 7.22852,1.462891 2.27609,0.975466 4.25113,2.301907 5.92968,3.98047 1.67857,1.67856 3.00501,3.6536 3.98047,5.92969 h 0.002 v 0.002 c 0.97403,2.21859 1.46094,4.62535 1.46094,7.22656 v 6.53516 l 10.81641,-1.67774 v -4.85742 c 0,-3.99743 -0.76686,-7.75105 -2.30078,-11.25781 v -0.002 c -1.47874,-3.504616 -3.5347,-6.573765 -6.16407,-9.203129 -2.62914,-2.629146 -5.69691,-4.683392 -9.20117,-6.162109 -3.50725,-1.534424 -7.26364,-2.302734 -11.26172,-2.302734 z m 0,0.265624 h 8.34375 c 3.96426,10e-7 7.68089,0.75968 11.1543,2.279297 h 0.002 c 3.47538,1.466176 6.51537,3.50169 9.1211,6.107422 2.60573,2.605732 4.6393,5.643766 6.10547,9.119139 l 0.002,0.002 c 1.51962,3.47342 2.2793,7.19005 2.2793,11.1543 v 4.63086 l -10.28907,1.5957 v -6.22656 c 0,-2.63362 -0.49362,-5.07911 -1.48242,-7.33203 v -0.002 c -0.98778,-2.3043 -2.3348,-4.30942 -4.03711,-6.01172 -1.70208,-1.70209 -3.70779,-3.04741 -6.01172,-4.035158 -2.25339,-0.989294 -4.6997,-1.484375 -7.33398,-1.484374 h -7.36133 c -2.63428,-10e-7 -5.10871,0.493578 -7.41601,1.482421 v 0.002 c -2.24999,0.987801 -4.25547,2.331829 -6.01172,4.033211 v 0.002 c -1.7027,1.7027 -3.04926,3.7087 -4.03711,6.01367 -0.9888,2.25292 -1.48242,4.69841 -1.48242,7.33203 v 62.99024 c 0,2.63429 0.49358,5.10675 1.48242,7.41406 v 0.002 c 0.9878,2.24999 2.33379,4.25351 4.03515,6.00977 l 0.002,0.002 v 0.002 c 1.75625,1.70137 3.76173,3.0454 6.01172,4.03321 2.3073,0.98884 4.78173,1.48437 7.41601,1.48437 h 7.36133 c 2.63362,0 5.07911,-0.49558 7.33203,-1.48437 2.30498,-0.98785 4.31098,-2.33246 6.01367,-4.03516 l 0.002,-0.002 c 1.70137,-1.75626 3.04735,-3.75978 4.03515,-6.00977 v -0.002 c 0.98885,-2.30731 1.48242,-4.77977 1.48242,-7.41406 v -24.5918 h -18.73242 v -9.79688 h 29.02149 v 61.41602 h -3.15039 l -6.19922,-9.50586 -0.11328,0.15039 c -2.55259,3.36724 -5.64518,6.05344 -9.28321,8.0625 -3.63412,1.95266 -7.67237,2.92774 -12.125,2.92774 h -6.13672 c -3.9642,0 -7.70817,-0.732 -11.23632,-2.19727 h -0.002 c -3.47536,-1.52069 -6.51348,-3.58379 -9.11914,-6.18945 -2.60565,-2.60566 -4.66876,-5.64378 -6.18945,-9.11914 v -0.002 c -1.465,-3.47324 -2.19727,-7.19009 -2.19727,-11.15429 v -62.99024 c 0,-3.9642 0.73227,-7.68105 2.19727,-11.1543 v -0.002 c 1.52069,-3.475358 3.5838,-6.513485 6.18945,-9.119142 2.60574,-2.605732 5.64572,-4.641246 9.1211,-6.107422 3.52834,-1.519901 7.27207,-2.279297 11.23632,-2.279297 z"
           id="path852" />
      </g>
      <g
         id="g854"
         style="opacity:1;fill:url(#linearGradient886);fill-opacity:1;stroke:#fefefe;stroke-width:3.30265621;stroke-linecap:round;stroke-linejoin:round;stroke-miterlimit:4;stroke-dasharray:none;stroke-opacity:1">
        <path
           style="color:#000000;font-style:normal;font-variant:normal;font-weight:normal;font-stretch:normal;font-size:medium;line-height:1.25;font-family:Abel;-inkscape-font-specification:Abel;font-variant-ligatures:normal;font-variant-position:normal;font-variant-caps:normal;font-variant-numeric:normal;font-variant-alternates:normal;font-variant-east-asian:normal;font-feature-settings:normal;font-variation-settings:normal;text-indent:0;text-align:center;text-decoration:none;text-decoration-line:none;text-decoration-style:solid;text-decoration-color:#000000;letter-spacing:normal;word-spacing:normal;text-transform:none;writing-mode:lr-tb;direction:ltr;text-orientation:mixed;dominant-baseline:auto;baseline-shift:baseline;text-anchor:middle;white-space:normal;shape-padding:0;shape-margin:0;inline-size:0;clip-rule:nonzero;display:inline;overflow:visible;visibility:visible;isolation:auto;mix-blend-mode:normal;color-interpolation:sRGB;color-interpolation-filters:linearRGB;solid-color:#000000;solid-opacity:1;vector-effect:none;fill:url(#linearGradient886);fill-opacity:1;fill-rule:nonzero;stroke:#fefefe;stroke-width:3.30265621;stroke-linecap:round;stroke-linejoin:round;stroke-miterlimit:4;stroke-dasharray:none;stroke-dashoffset:0;stroke-opacity:1;color-rendering:auto;image-rendering:auto;shape-rendering:auto;text-rendering:auto;enable-background:accumulate;stop-color:#000000;stop-opacity:1"
           d="m 319.28856,203.94397 h -5.48091 l -22.82351,-88.26726 -0.32722,-4.58106 -0.49083,4.58106 -22.65989,88.26726 h -5.48092 L 230.8577,86.636051 h 10.5528 l 22.98712,89.167109 0.32722,4.33565 0.32722,-4.33565 22.57809,-89.167109 h 5.88994 l 22.57809,89.167109 0.32722,4.33565 0.40902,-4.33565 22.90531,-89.167109 h 10.55281 z"
           id="path856" />
        <path
           style="color:#000000;font-style:normal;font-variant:normal;font-weight:normal;font-stretch:normal;font-size:medium;line-height:1.25;font-family:Abel;-inkscape-font-specification:Abel;font-variant-ligatures:normal;font-variant-position:normal;font-variant-caps:normal;font-variant-numeric:normal;font-variant-alternates:normal;font-variant-east-asian:normal;font-feature-settings:normal;font-variation-settings:normal;text-indent:0;text-align:center;text-decoration:none;text-decoration-line:none;text-decoration-style:solid;text-decoration-color:#000000;letter-spacing:normal;word-spacing:normal;text-transform:none;writing-mode:lr-tb;direction:ltr;text-orientation:mixed;dominant-baseline:auto;baseline-shift:baseline;text-anchor:middle;white-space:normal;shape-padding:0;shape-margin:0;inline-size:0;clip-rule:nonzero;display:inline;overflow:visible;visibility:visible;isolation:auto;mix-blend-mode:normal;color-interpolation:sRGB;color-interpolation-filters:linearRGB;solid-color:#000000;solid-opacity:1;vector-effect:none;fill:url(#linearGradient886);fill-opacity:1;fill-rule:nonzero;stroke:#fefefe;stroke-width:3.30265621;stroke-linecap:round;stroke-linejoin:round;stroke-miterlimit:4;stroke-dasharray:none;stroke-dashoffset:0;stroke-opacity:1;color-rendering:auto;image-rendering:auto;shape-rendering:auto;text-rendering:auto;enable-background:accumulate;stop-color:#000000;stop-opacity:1"
           d="m 230.68555,86.503906 31.23828,117.572264 h 5.68555 l 22.6875,-88.375 0.33398,-3.11719 0.22266,3.11329 22.85156,88.3789 h 5.68554 l 0.0254,-0.0976 31.04882,-117.474614 h -10.82812 l -22.9336,89.277344 -0.26367,2.79492 -0.21093,-2.79492 -22.60547,-89.277344 h -6.09571 l -22.60546,89.277344 -0.19532,2.60156 -0.19726,-2.60156 -23.01563,-89.277344 z m 0.3457,0.263672 h 10.27734 l 22.95703,89.056642 0.32813,4.32422 h 0.26367 l 0.32617,-4.32422 22.54883,-89.056642 h 5.68555 l 22.54883,89.056642 0.32617,4.32422 0.26367,0.002 0.4082,-4.32422 22.87696,-89.058592 h 10.27929 L 319.18555,203.8125 h -5.27539 l -22.79493,-88.1582 -0.32617,-4.56836 -0.26367,-0.004 -0.49023,4.57031 -22.63086,88.16016 h -5.27735 z"
           id="path858" />
      </g>
      <g
         id="g860"
         style="opacity:1;fill:url(#linearGradient886);fill-opacity:1;stroke:#fefefe;stroke-width:3.30265621;stroke-linecap:round;stroke-linejoin:round;stroke-miterlimit:4;stroke-dasharray:none;stroke-opacity:1">
        <path
           style="color:#000000;font-style:normal;font-variant:normal;font-weight:normal;font-stretch:normal;font-size:medium;line-height:1.25;font-family:Abel;-inkscape-font-specification:Abel;font-variant-ligatures:normal;font-variant-position:normal;font-variant-caps:normal;font-variant-numeric:normal;font-variant-alternates:normal;font-variant-east-asian:normal;font-feature-settings:normal;font-variation-settings:normal;text-indent:0;text-align:center;text-decoration:none;text-decoration-line:none;text-decoration-style:solid;text-decoration-color:#000000;letter-spacing:normal;word-spacing:normal;text-transform:none;writing-mode:lr-tb;direction:ltr;text-orientation:mixed;dominant-baseline:auto;baseline-shift:baseline;text-anchor:middle;white-space:normal;shape-padding:0;shape-margin:0;inline-size:0;clip-rule:nonzero;display:inline;overflow:visible;visibility:visible;isolation:auto;mix-blend-mode:normal;color-interpolation:sRGB;color-interpolation-filters:linearRGB;solid-color:#000000;solid-opacity:1;vector-effect:none;fill:url(#linearGradient886);fill-opacity:1;fill-rule:nonzero;stroke:#fefefe;stroke-width:3.30265621;stroke-linecap:round;stroke-linejoin:round;stroke-miterlimit:4;stroke-dasharray:none;stroke-dashoffset:0;stroke-opacity:1;color-rendering:auto;image-rendering:auto;shape-rendering:auto;text-rendering:auto;enable-background:accumulate;stop-color:#000000;stop-opacity:1"
           d="m 235.76598,386.20481 c 0,3.98116 -0.76351,7.71691 -2.29053,11.20724 -1.47249,3.49033 -3.5176,6.54438 -6.13535,9.16213 -2.61775,2.61775 -5.6718,4.69013 -9.16213,6.21715 -3.49033,1.47249 -7.22608,2.20873 -11.20724,2.20873 h -8.34408 c -3.98116,0 -7.74417,-0.73624 -11.28904,-2.20873 -3.49033,-1.52702 -6.54438,-3.5994 -9.16213,-6.21715 -2.61775,-2.61775 -4.69013,-5.6718 -6.21715,-9.16213 -1.47249,-3.49033 -2.20873,-7.22608 -2.20873,-11.20724 V 323.2152 c 0,-3.98116 0.73624,-7.71691 2.20873,-11.20724 1.52702,-3.49033 3.5994,-6.54438 6.21715,-9.16213 2.61775,-2.61775 5.6718,-4.66286 9.16213,-6.13535 3.54487,-1.52702 7.30788,-2.29053 11.28904,-2.29053 h 8.34408 c 3.98116,0 7.71691,0.76351 11.20724,2.29053 3.49033,1.47249 6.54438,3.5176 9.16213,6.13535 2.61775,2.61775 4.66286,5.6718 6.13535,9.16213 1.52702,3.49033 2.29053,7.22608 2.29053,11.20724 v 4.74467 l -10.5528,1.6361 v -6.38077 c 0,-2.61775 -0.49083,-5.04462 -1.47249,-7.28062 -0.98165,-2.29053 -2.3178,-4.28111 -4.00843,-5.97174 -1.69063,-1.69063 -3.68121,-3.02677 -5.97174,-4.00843 -2.23599,-0.98165 -4.66287,-1.47248 -7.28062,-1.47248 h -7.36242 c -2.61775,0 -5.07189,0.49083 -7.36242,1.47248 -2.23599,0.98166 -4.22657,2.3178 -5.97174,4.00843 -1.69063,1.69063 -3.02678,3.68121 -4.00843,5.97174 -0.98166,2.236 -1.47249,4.66287 -1.47249,7.28062 v 62.98961 c 0,2.61775 0.49083,5.07189 1.47249,7.36242 0.98165,2.23599 2.3178,4.22657 4.00843,5.97174 1.74517,1.69063 3.73575,3.02678 5.97174,4.00843 2.29053,0.98166 4.74467,1.47249 7.36242,1.47249 h 7.36242 c 2.61775,0 5.04463,-0.49083 7.28062,-1.47249 2.29053,-0.98165 4.28111,-2.3178 5.97174,-4.00843 1.69063,-1.74517 3.02678,-3.73575 4.00843,-5.97174 0.98166,-2.29053 1.47249,-4.74467 1.47249,-7.36242 v -6.38077 l 10.5528,1.7179 z"
           id="path862" />
        <path
           style="color:#000000;font-style:normal;font-variant:normal;font-weight:normal;font-stretch:normal;font-size:medium;line-height:1.25;font-family:Abel;-inkscape-font-specification:Abel;font-variant-ligatures:normal;font-variant-position:normal;font-variant-caps:normal;font-variant-numeric:normal;font-variant-alternates:normal;font-variant-east-asian:normal;font-feature-settings:normal;font-variation-settings:normal;text-indent:0;text-align:center;text-decoration:none;text-decoration-line:none;text-decoration-style:solid;text-decoration-color:#000000;letter-spacing:normal;word-spacing:normal;text-transform:none;writing-mode:lr-tb;direction:ltr;text-orientation:mixed;dominant-baseline:auto;baseline-shift:baseline;text-anchor:middle;white-space:normal;shape-padding:0;shape-margin:0;inline-size:0;clip-rule:nonzero;display:inline;overflow:visible;visibility:visible;isolation:auto;mix-blend-mode:normal;color-interpolation:sRGB;color-interpolation-filters:linearRGB;solid-color:#000000;solid-opacity:1;vector-effect:none;fill:url(#linearGradient886);fill-opacity:1;fill-rule:nonzero;stroke:#fefefe;stroke-width:3.30265621;stroke-linecap:round;stroke-linejoin:round;stroke-miterlimit:4;stroke-dasharray:none;stroke-dashoffset:0;stroke-opacity:1;color-rendering:auto;image-rendering:auto;shape-rendering:auto;text-rendering:auto;enable-background:accumulate;stop-color:#000000;stop-opacity:1"
           d="m 198.62695,294.28711 c -3.99807,0 -7.7804,0.76859 -11.34179,2.30273 -3.50426,1.47872 -6.57398,3.53297 -9.20313,6.16211 -2.62944,2.62945 -4.71086,5.69849 -6.24414,9.20313 h -0.002 v 0.002 c -1.47949,3.50693 -2.21875,7.26034 -2.21875,11.25781 v 62.99024 c 0,3.99747 0.73926,7.75088 2.21875,11.25781 v 0.002 h 0.002 c 1.53328,3.50464 3.6147,6.57368 6.24414,9.20313 2.62945,2.62944 5.69849,4.71086 9.20313,6.24414 l 0.002,0.002 c 3.56107,1.47922 7.34237,2.21875 11.33984,2.21875 h 8.34375 c 3.99747,0 7.75089,-0.73926 11.25782,-2.21875 l 0.002,-0.002 c 3.50464,-1.53328 6.57368,-3.6147 9.20312,-6.24414 2.62915,-2.62915 4.68339,-5.69887 6.16211,-9.20313 1.53443,-3.50725 2.30274,-7.26169 2.30274,-11.25976 v -4.77539 l -10.81836,-1.76172 v 6.53711 c 0,2.60055 -0.48696,5.03532 -1.46094,7.30859 -0.9753,2.22153 -2.30304,4.19783 -3.98242,5.93164 -1.67833,1.67806 -3.65213,3.00521 -5.92774,3.98047 h -0.002 c -2.21859,0.97402 -4.62534,1.46094 -7.22656,1.46094 h -7.36328 c -2.60056,0 -5.03533,-0.48696 -7.3086,-1.46094 h -0.002 c -2.21965,-0.97469 -4.19503,-2.30085 -5.92773,-3.97851 l -0.002,-0.002 c -6.6e-4,-6.4e-4 -0.001,-0.001 -0.002,-0.002 -1.67766,-1.73271 -3.00382,-3.70809 -3.97852,-5.92774 v -0.002 c -0.97398,-2.27327 -1.46093,-4.70804 -1.46093,-7.30859 V 323.2148 c 0,-2.60121 0.48691,-5.00796 1.46093,-7.22656 v -0.002 c 0.97547,-2.27609 2.30191,-4.25113 3.98047,-5.92969 1.73319,-1.67857 3.70919,-3.00539 5.92969,-3.98047 2.27376,-0.97446 4.70934,-1.46289 7.31055,-1.46289 h 7.36328 c 2.60122,0 5.00797,0.48888 7.22656,1.46289 h 0.002 c 2.2761,0.97547 4.25114,2.30191 5.92969,3.98047 1.67857,1.67856 3.00501,3.6536 3.98047,5.92969 v 0.002 c 0.97402,2.2186 1.46094,4.62535 1.46094,7.22656 v 6.5352 l 10.81836,-1.67773 v -4.85743 c 0,-3.99807 -0.76831,-7.75251 -2.30274,-11.25976 -1.47872,-3.50426 -3.53296,-6.57398 -6.16211,-9.20313 -2.62915,-2.62914 -5.69887,-4.68339 -9.20312,-6.16211 -3.50726,-1.53442 -7.26169,-2.30273 -11.25977,-2.30273 z m 0,0.26562 h 8.34375 c 3.96425,0 7.68089,0.75968 11.1543,2.2793 h 0.002 c 3.47538,1.46618 6.51341,3.50169 9.11914,6.10742 2.60573,2.60574 4.64125,5.64377 6.10743,9.11914 v 0.002 c 1.51961,3.47341 2.27929,7.19005 2.27929,11.15429 v 4.63086 l -10.28711,1.59571 v -6.22657 c 0,-2.63362 -0.49557,-5.0791 -1.48437,-7.33203 v -0.002 c -0.98778,-2.30429 -2.33285,-4.30941 -4.03516,-6.01172 -1.70208,-1.70208 -3.70779,-3.0474 -6.01172,-4.03516 -2.25339,-0.98929 -4.69969,-1.48437 -7.33398,-1.48437 h -7.36328 c -2.63429,0 -5.10676,0.49358 -7.41407,1.48242 v 0.002 h -0.002 c -2.24999,0.98781 -4.25351,2.33184 -6.00976,4.03321 v 0.002 h -0.002 c -1.70209,1.70209 -3.04741,3.7078 -4.03515,6.01172 -0.9893,2.2534 -1.48438,4.6997 -1.48438,7.33398 v 62.99024 c 0,2.63428 0.49358,5.10676 1.48242,7.41406 h 0.002 v 0.002 c 0.98779,2.24999 2.33182,4.25351 4.0332,6.00977 l 0.002,0.002 0.002,0.002 c 1.75625,1.70137 3.75977,3.0454 6.00976,4.0332 h 0.002 v 0.002 c 2.30731,0.98885 4.77978,1.48242 7.41407,1.48242 h 7.36328 c 2.63429,0 5.08059,-0.49507 7.33398,-1.48437 2.30393,-0.98775 4.30964,-2.33307 6.01172,-4.03516 v -0.002 h 0.002 c 1.70138,-1.75626 3.04541,-3.75978 4.03321,-6.00977 v -0.002 c 0.98885,-2.3073 1.48437,-4.77978 1.48437,-7.41406 v -6.22461 l 10.28711,1.67383 v 4.55078 c 0,3.96424 -0.75968,7.68088 -2.27929,11.1543 v 0.002 c -1.46618,3.47538 -3.5017,6.5134 -6.10743,9.11914 -2.60606,2.60605 -5.64506,4.66869 -9.12109,6.18945 -3.47324,1.465 -7.1901,2.19727 -11.1543,2.19727 h -8.34375 c -3.9642,0 -7.70817,-0.73199 -11.23633,-2.19727 h -0.002 c -3.47536,-1.52069 -6.51348,-3.5838 -9.11914,-6.18945 -2.60565,-2.60566 -4.66876,-5.64378 -6.18945,-9.11914 v -0.002 c -1.465,-3.47325 -2.19727,-7.19011 -2.19727,-11.1543 v -62.99024 c 0,-3.96419 0.73227,-7.68105 2.19727,-11.15429 v -0.002 c 1.52069,-3.47536 3.5838,-6.51348 6.18945,-9.11914 2.60574,-2.60573 5.64376,-4.64124 9.11914,-6.10742 h 0.002 c 3.52835,-1.5199 7.27209,-2.2793 11.23633,-2.2793 z"
           id="path864" />
      </g>
      <g
         id="g866"
         style="opacity:1;fill:url(#linearGradient886);fill-opacity:1;stroke:#fefefe;stroke-width:3.30265621;stroke-linecap:round;stroke-linejoin:round;stroke-miterlimit:4;stroke-dasharray:none;stroke-opacity:1">
        <path
           style="color:#000000;font-style:normal;font-variant:normal;font-weight:normal;font-stretch:normal;font-size:medium;line-height:1.25;font-family:Abel;-inkscape-font-specification:Abel;font-variant-ligatures:normal;font-variant-position:normal;font-variant-caps:normal;font-variant-numeric:normal;font-variant-alternates:normal;font-variant-east-asian:normal;font-feature-settings:normal;font-variation-settings:normal;text-indent:0;text-align:center;text-decoration:none;text-decoration-line:none;text-decoration-style:solid;text-decoration-color:#000000;letter-spacing:normal;word-spacing:normal;text-transform:none;writing-mode:lr-tb;direction:ltr;text-orientation:mixed;dominant-baseline:auto;baseline-shift:baseline;text-anchor:middle;white-space:normal;shape-padding:0;shape-margin:0;inline-size:0;clip-rule:nonzero;display:inline;overflow:visible;visibility:visible;isolation:auto;mix-blend-mode:normal;color-interpolation:sRGB;color-interpolation-filters:linearRGB;solid-color:#000000;solid-opacity:1;vector-effect:none;fill:url(#linearGradient886);fill-opacity:1;fill-rule:nonzero;stroke:#fefefe;stroke-width:3.30265621;stroke-linecap:round;stroke-linejoin:round;stroke-miterlimit:4;stroke-dasharray:none;stroke-dashoffset:0;stroke-opacity:1;color-rendering:auto;image-rendering:auto;shape-rendering:auto;text-rendering:auto;enable-background:accumulate;stop-color:#000000;stop-opacity:1"
           d="m 323.54241,386.20481 c 0,3.98116 -0.76351,7.71691 -2.29053,11.20724 -1.47249,3.49033 -3.5176,6.54438 -6.13535,9.16213 -2.61775,2.61775 -5.6718,4.69013 -9.16213,6.21715 -3.49033,1.47249 -7.22608,2.20873 -11.20724,2.20873 h -8.34408 c -3.98116,0 -7.74417,-0.73624 -11.28904,-2.20873 -3.49033,-1.52702 -6.54438,-3.5994 -9.16213,-6.21715 -2.61775,-2.61775 -4.69013,-5.6718 -6.21716,-9.16213 -1.47248,-3.49033 -2.20872,-7.22608 -2.20872,-11.20724 V 323.2152 c 0,-3.98116 0.73624,-7.71691 2.20872,-11.20724 1.52703,-3.49033 3.59941,-6.54438 6.21716,-9.16213 2.61775,-2.61775 5.6718,-4.66286 9.16213,-6.13535 3.54487,-1.52702 7.30788,-2.29053 11.28904,-2.29053 h 8.34408 c 3.98116,0 7.71691,0.76351 11.20724,2.29053 3.49033,1.47249 6.54438,3.5176 9.16213,6.13535 2.61775,2.61775 4.66286,5.6718 6.13535,9.16213 1.52702,3.49033 2.29053,7.22608 2.29053,11.20724 v 4.74467 l -10.55281,1.6361 v -6.38077 c 0,-2.61775 -0.49083,-5.04462 -1.47248,-7.28062 -0.98165,-2.29053 -2.3178,-4.28111 -4.00843,-5.97174 -1.69063,-1.69063 -3.68121,-3.02677 -5.97174,-4.00843 -2.23599,-0.98165 -4.66287,-1.47248 -7.28062,-1.47248 h -7.36242 c -2.61775,0 -5.07189,0.49083 -7.36242,1.47248 -2.23599,0.98166 -4.22657,2.3178 -5.97174,4.00843 -1.69063,1.69063 -3.02678,3.68121 -4.00843,5.97174 -0.98166,2.236 -1.47249,4.66287 -1.47249,7.28062 v 62.98961 c 0,2.61775 0.49083,5.07189 1.47249,7.36242 0.98165,2.23599 2.3178,4.22657 4.00843,5.97174 1.74517,1.69063 3.73575,3.02678 5.97174,4.00843 2.29053,0.98166 4.74467,1.47249 7.36242,1.47249 h 7.36242 c 2.61775,0 5.04463,-0.49083 7.28062,-1.47249 2.29053,-0.98165 4.28111,-2.3178 5.97174,-4.00843 1.69063,-1.74517 3.02678,-3.73575 4.00843,-5.97174 0.98165,-2.29053 1.47248,-4.74467 1.47248,-7.36242 v -6.38077 l 10.55281,1.7179 z"
           id="path868" />
        <path
           style="color:#000000;font-style:normal;font-variant:normal;font-weight:normal;font-stretch:normal;font-size:medium;line-height:1.25;font-family:Abel;-inkscape-font-specification:Abel;font-variant-ligatures:normal;font-variant-position:normal;font-variant-caps:normal;font-variant-numeric:normal;font-variant-alternates:normal;font-variant-east-asian:normal;font-feature-settings:normal;font-variation-settings:normal;text-indent:0;text-align:center;text-decoration:none;text-decoration-line:none;text-decoration-style:solid;text-decoration-color:#000000;letter-spacing:normal;word-spacing:normal;text-transform:none;writing-mode:lr-tb;direction:ltr;text-orientation:mixed;dominant-baseline:auto;baseline-shift:baseline;text-anchor:middle;white-space:normal;shape-padding:0;shape-margin:0;inline-size:0;clip-rule:nonzero;display:inline;overflow:visible;visibility:visible;isolation:auto;mix-blend-mode:normal;color-interpolation:sRGB;color-interpolation-filters:linearRGB;solid-color:#000000;solid-opacity:1;vector-effect:none;fill:url(#linearGradient886);fill-opacity:1;fill-rule:nonzero;stroke:#fefefe;stroke-width:3.30265621;stroke-linecap:round;stroke-linejoin:round;stroke-miterlimit:4;stroke-dasharray:none;stroke-dashoffset:0;stroke-opacity:1;color-rendering:auto;image-rendering:auto;shape-rendering:auto;text-rendering:auto;enable-background:accumulate;stop-color:#000000;stop-opacity:1"
           d="m 286.40234,294.28711 c -3.99807,0 -7.77845,0.76859 -11.33984,2.30273 v -0.002 c -3.50529,1.4788 -6.57531,3.5343 -9.20508,6.16406 -2.62944,2.62945 -4.71085,5.69849 -6.24414,9.20313 v 0.002 c -1.47948,3.50693 -2.21875,7.26034 -2.21875,11.25781 v 62.99024 c 0,3.99747 0.73927,7.75088 2.21875,11.25781 v 0.002 c 1.53329,3.50464 3.6147,6.57368 6.24414,9.20313 2.62945,2.62944 5.69849,4.71086 9.20313,6.24414 h 0.002 v 0.002 c 3.56107,1.47922 7.34237,2.21875 11.33984,2.21875 h 8.34571 c 3.99747,0 7.75088,-0.73926 11.25781,-2.21875 v -0.002 h 0.002 c 3.50464,-1.53328 6.57368,-3.6147 9.20313,-6.24414 2.62936,-2.62937 4.68336,-5.69851 6.16211,-9.20313 v -0.002 c 1.53392,-3.50676 2.30078,-7.26039 2.30078,-11.25781 v -4.77539 l -10.81641,-1.76172 v 6.53711 c 0,2.60055 -0.48696,5.03532 -1.46094,7.30859 -0.97513,2.22115 -2.30149,4.19804 -3.98046,5.93164 -3.6e-4,3.6e-4 -0.002,-3.5e-4 -0.002,0 -3.5e-4,3.7e-4 3.6e-4,0.002 0,0.002 -1.67813,1.67764 -3.65448,3.00343 -5.92968,3.97851 -2.2186,0.97402 -4.6273,1.46094 -7.22852,1.46094 h -7.36133 c -2.60121,0 -5.03678,-0.48647 -7.31055,-1.46094 -2.22199,-0.97551 -4.19756,-2.30253 -5.93164,-3.98242 -1.67785,-1.73269 -3.00368,-3.70806 -3.97851,-5.92774 -0.97447,-2.27376 -1.46289,-4.70933 -1.46289,-7.31054 v -62.99024 c 0,-2.60121 0.48691,-5.00796 1.46094,-7.22656 v -0.002 h 0.002 c 0.97525,-2.2756 2.30046,-4.2494 3.97851,-5.92774 1.73408,-1.67988 3.70965,-3.0069 5.93164,-3.98242 2.27377,-0.97446 4.70934,-1.46289 7.31055,-1.46289 h 7.36133 c 2.60122,0 5.00992,0.48888 7.22852,1.46289 2.27609,0.97547 4.25308,2.30191 5.93164,3.98047 1.67856,1.67856 3.005,3.6536 3.98046,5.92969 v 0.002 c 0.97402,2.2186 1.46094,4.62535 1.46094,7.22656 V 329.75 l 10.81641,-1.67773 v -4.85743 c 0,-3.99742 -0.76686,-7.75104 -2.30078,-11.25781 v -0.002 c -1.47875,-3.50462 -3.53275,-6.57376 -6.16211,-9.20313 -2.62915,-2.62914 -5.69887,-4.68339 -9.20313,-6.16211 -3.50725,-1.53442 -7.26169,-2.30273 -11.25976,-2.30273 z m 0,0.26562 h 8.34571 c 3.96424,0 7.68088,0.75968 11.15429,2.2793 3.47538,1.46618 6.51536,3.50169 9.1211,6.10742 2.60573,2.60574 4.64124,5.64377 6.10742,9.11914 v 0.002 c 1.51962,3.47341 2.2793,7.19005 2.2793,11.15429 v 4.63086 l -10.28907,1.59571 v -6.22657 c 0,-2.63362 -0.49362,-5.0791 -1.48242,-7.33203 v -0.002 c -0.98778,-2.30429 -2.3348,-4.30941 -4.03711,-6.01172 -1.70269,-1.7027 -3.70674,-3.04926 -6.01172,-4.03711 v 0.002 c -2.25339,-0.98929 -4.69969,-1.48437 -7.33398,-1.48437 h -7.36133 c -2.63428,0 -5.10871,0.49358 -7.41601,1.48242 v 0.002 c -2.24999,0.98781 -4.25547,2.33184 -6.01172,4.03321 v 0.002 c -1.70271,1.7027 -3.04927,3.7087 -4.03711,6.01367 -0.9888,2.25293 -1.48242,4.69841 -1.48242,7.33203 v 62.99024 c 0,2.63428 0.49357,5.10676 1.48242,7.41406 v 0.002 c 0.9878,2.24999 2.33378,4.25351 4.03515,6.00977 l 0.002,0.002 v 0.002 c 1.75625,1.70137 3.76173,3.0454 6.01172,4.0332 v 0.002 c 2.3073,0.98885 4.78173,1.48242 7.41601,1.48242 h 7.36133 c 2.63429,0 5.08059,-0.49507 7.33398,-1.48437 v 0.002 c 2.30498,-0.98784 4.30903,-2.3344 6.01172,-4.03711 l 0.002,-0.002 c 1.70137,-1.75626 3.04735,-3.75978 4.03515,-6.00977 v -0.002 c 0.98884,-2.3073 1.48242,-4.77978 1.48242,-7.41406 v -6.22461 l 10.28907,1.67383 v 4.55078 c 0,3.96424 -0.75968,7.68088 -2.2793,11.1543 v 0.002 c -1.46618,3.47538 -3.50169,6.5134 -6.10742,9.11914 -2.60606,2.60605 -5.64507,4.66869 -9.1211,6.18945 -3.47373,1.46549 -7.18944,2.19727 -11.15429,2.19727 h -8.34571 c -3.96355,0 -7.70672,-0.73247 -11.23437,-2.19727 -3.47603,-1.52076 -6.51699,-3.5834 -9.12305,-6.18945 -2.60543,-2.60544 -4.66683,-5.64415 -6.1875,-9.11914 -1.46548,-3.47374 -2.19922,-7.1914 -2.19922,-11.15625 v -62.99024 c 0,-3.96485 0.73374,-7.68251 2.19922,-11.15625 1.52067,-3.47499 3.58207,-6.5137 6.1875,-9.11914 2.60574,-2.60573 5.64572,-4.64124 9.1211,-6.10742 3.52834,-1.5199 7.27208,-2.2793 11.23632,-2.2793 z"
           id="path870" />
      </g>
    </g>
    <circle
       style="fill:none;fill-opacity:1;stroke:#fefefe;stroke-width:50;stroke-linecap:round;stroke-linejoin:round;stroke-miterlimit:4;stroke-dasharray:none;stroke-opacity:1;paint-order:stroke fill markers"
       id="path837"
       cx="250"
       cy="250"
       r="225" />
  </g>
</svg>
